#Comment line ignore any data following # character 
#Hierarchical Translation and Rotation (.htr) file 
[Header]	
#Header keywords are followed by a single value 
FileType HTR		#Single word string
DataType HTRS		#Translation followed by rotation and scale data
FileVersion 1		#integer
NumSegments 84		#integer
NumFrames 2		#integer
DataFrameRate 30		#integer, data frame rate in this file
EulerRotationOrder ZYX
CalibrationUnits mm
RotationUnits Degrees
GlobalAxisofGravity Y
BoneLengthAxis Y
ScaleFactor 1.00
[SegmentNames&Hierarchy]
#CHILD	PARENT
MASTER GLOBAL
root MASTER
chest root
L_mid_tent01 root
R_mid_tent01 root
spine01 root
Bip01_Neck chest
L_humerus chest
R_humerus chest
weapon_bone chest
Bip01_Head Bip01_Neck
eye_left_bone Bip01_Head
eye_right_bone Bip01_Head
L_forearm L_humerus
L_front_hand L_forearm
L_weapon_bone L_forearm
L_front_hand01_01 L_front_hand
L_front_hand02_01 L_front_hand
L_front_hand03_01 L_front_hand
L_front_hand01_02 L_front_hand01_01
L_front_hand02_02 L_front_hand02_01
L_front_hand03_02 L_front_hand03_01
R_forearm R_humerus
R_front_hand R_forearm
R_weapon_bone R_forearm
R_front_hand01_01 R_front_hand
R_front_hand02_01 R_front_hand
R_front_hand03_01 R_front_hand
R_front_hand01_02 R_front_hand01_01
R_front_hand02_02 R_front_hand02_01
R_front_hand03_02 R_front_hand03_01
null_rope01_connect L_mid_tent01
Rope1_Seg01 null_rope01_connect
Rope1_Seg02 Rope1_Seg01
Rope1_Seg03 Rope1_Seg02
Rope1_Seg04 Rope1_Seg03
Rope1_Seg05 Rope1_Seg04
Rope1_Seg06 Rope1_Seg05
Rope1_Seg07 Rope1_Seg06
Rope1_Seg09 Rope1_Seg07
L_mid_hand01 Rope1_Seg09
L_mid_hand02 Rope1_Seg09
L_mid_hand03 Rope1_Seg09
null_rope02_connect R_mid_tent01
Rope2_Seg01 null_rope02_connect
Rope2_Seg02 Rope2_Seg01
Rope2_Seg03 Rope2_Seg02
Rope2_Seg04 Rope2_Seg03
Rope2_Seg05 Rope2_Seg04
Rope2_Seg06 Rope2_Seg05
Rope2_Seg07 Rope2_Seg06
Rope2_Seg09 Rope2_Seg07
R_mid_hand01 Rope2_Seg09
R_mid_hand02 Rope2_Seg09
R_mid_hand03 Rope2_Seg09
spine02 spine01
spine03 spine02
pelvis spine03
null_rope03_connect pelvis
null_rope04_connect pelvis
Rope3_Seg01 null_rope03_connect
Rope3_Seg02 Rope3_Seg01
Rope3_Seg03 Rope3_Seg02
Rope3_Seg04 Rope3_Seg03
Rope3_Seg05 Rope3_Seg04
Rope3_Seg06 Rope3_Seg05
Rope3_Seg07 Rope3_Seg06
Rope3_Seg08 Rope3_Seg07
Rope3_Seg09 Rope3_Seg08
R_rear_hand01 Rope3_Seg09
R_rear_hand02 Rope3_Seg09
R_rear_hand03 Rope3_Seg09
Rope4_Seg01 null_rope04_connect
Rope4_Seg02 Rope4_Seg01
Rope4_Seg03 Rope4_Seg02
Rope4_Seg04 Rope4_Seg03
Rope4_Seg05 Rope4_Seg04
Rope4_Seg06 Rope4_Seg05
Rope4_Seg07 Rope4_Seg06
Rope4_Seg08 Rope4_Seg07
Rope4_Seg09 Rope4_Seg08
L_rear_hand01 Rope4_Seg09
L_rear_hand02 Rope4_Seg09
L_rear_hand03 Rope4_Seg09
[BasePosition]
#SegmentName Tx, Ty, Tz, Rx, Ry, Rz, BoneLength
MASTER 0.000000 0.000000 0.000000 -90.000000 0.000000 0.000000 10.000000 
root 0.000000 0.000000 0.000000 0.000000 0.000000 0.000000 10.000000 
chest 0.000000 0.000000 0.000000 0.000000 0.000000 0.000000 10.000000 
L_mid_tent01 0.000000 0.000000 0.000000 0.000000 0.000000 0.000000 10.000000 
R_mid_tent01 0.000000 0.000000 0.000000 0.000000 0.000000 0.000000 10.000000 
spine01 0.000000 0.000000 0.000000 0.000000 0.000000 0.000000 10.000000 
Bip01_Neck 0.000000 0.000000 0.000000 0.000000 0.000000 0.000000 10.000000 
L_humerus 0.000000 0.000000 0.000000 0.000000 0.000000 0.000000 10.000000 
R_humerus 0.000000 0.000000 0.000000 0.000000 0.000000 0.000000 10.000000 
weapon_bone 0.000000 0.000000 0.000000 0.000000 0.000000 0.000000 10.000000 
Bip01_Head 0.000000 0.000000 0.000000 0.000000 0.000000 0.000000 10.000000 
eye_left_bone 0.000000 0.000000 0.000000 0.000000 0.000000 0.000000 10.000000 
eye_right_bone 0.000000 0.000000 0.000000 0.000000 0.000000 0.000000 10.000000 
L_forearm 0.000000 0.000000 0.000000 0.000000 0.000000 0.000000 10.000000 
L_front_hand 0.000000 0.000000 0.000000 0.000000 0.000000 0.000000 10.000000 
L_weapon_bone 0.000000 0.000000 0.000000 0.000000 0.000000 0.000000 10.000000 
L_front_hand01_01 0.000000 0.000000 0.000000 0.000000 0.000000 0.000000 10.000000 
L_front_hand02_01 0.000000 0.000000 0.000000 0.000000 0.000000 0.000000 10.000000 
L_front_hand03_01 0.000000 0.000000 0.000000 0.000000 0.000000 0.000000 10.000000 
L_front_hand01_02 0.000000 0.000000 0.000000 0.000000 0.000000 0.000000 10.000000 
L_front_hand02_02 0.000000 0.000000 0.000000 0.000000 0.000000 0.000000 10.000000 
L_front_hand03_02 0.000000 0.000000 0.000000 0.000000 0.000000 0.000000 10.000000 
R_forearm 0.000000 0.000000 0.000000 0.000000 0.000000 0.000000 10.000000 
R_front_hand 0.000000 0.000000 0.000000 0.000000 0.000000 0.000000 10.000000 
R_weapon_bone 0.000000 0.000000 0.000000 0.000000 0.000000 0.000000 10.000000 
R_front_hand01_01 0.000000 0.000000 0.000000 0.000000 0.000000 0.000000 10.000000 
R_front_hand02_01 0.000000 0.000000 0.000000 0.000000 0.000000 0.000000 10.000000 
R_front_hand03_01 0.000000 0.000000 0.000000 0.000000 0.000000 0.000000 10.000000 
R_front_hand01_02 0.000000 0.000000 0.000000 0.000000 0.000000 0.000000 10.000000 
R_front_hand02_02 0.000000 0.000000 0.000000 0.000000 0.000000 0.000000 10.000000 
R_front_hand03_02 0.000000 0.000000 0.000000 0.000000 0.000000 0.000000 10.000000 
null_rope01_connect 0.000000 0.000000 0.000000 0.000000 0.000000 0.000000 10.000000 
Rope1_Seg01 0.000000 0.000000 0.000000 0.000000 0.000000 0.000000 10.000000 
Rope1_Seg02 0.000000 0.000000 0.000000 0.000000 0.000000 0.000000 10.000000 
Rope1_Seg03 0.000000 0.000000 0.000000 0.000000 0.000000 0.000000 10.000000 
Rope1_Seg04 0.000000 0.000000 0.000000 0.000000 0.000000 0.000000 10.000000 
Rope1_Seg05 0.000000 0.000000 0.000000 0.000000 0.000000 0.000000 10.000000 
Rope1_Seg06 0.000000 0.000000 0.000000 0.000000 0.000000 0.000000 10.000000 
Rope1_Seg07 0.000000 0.000000 0.000000 0.000000 0.000000 0.000000 10.000000 
Rope1_Seg09 0.000000 0.000000 0.000000 0.000000 0.000000 0.000000 10.000000 
L_mid_hand01 0.000000 0.000000 0.000000 0.000000 0.000000 0.000000 10.000000 
L_mid_hand02 0.000000 0.000000 0.000000 0.000000 0.000000 0.000000 10.000000 
L_mid_hand03 0.000000 0.000000 0.000000 0.000000 0.000000 0.000000 10.000000 
null_rope02_connect 0.000000 0.000000 0.000000 0.000000 0.000000 0.000000 10.000000 
Rope2_Seg01 0.000000 0.000000 0.000000 0.000000 0.000000 0.000000 10.000000 
Rope2_Seg02 0.000000 0.000000 0.000000 0.000000 0.000000 0.000000 10.000000 
Rope2_Seg03 0.000000 0.000000 0.000000 0.000000 0.000000 0.000000 10.000000 
Rope2_Seg04 0.000000 0.000000 0.000000 0.000000 0.000000 0.000000 10.000000 
Rope2_Seg05 0.000000 0.000000 0.000000 0.000000 0.000000 0.000000 10.000000 
Rope2_Seg06 0.000000 0.000000 0.000000 0.000000 0.000000 0.000000 10.000000 
Rope2_Seg07 0.000000 0.000000 0.000000 0.000000 0.000000 0.000000 10.000000 
Rope2_Seg09 0.000000 0.000000 0.000000 0.000000 0.000000 0.000000 10.000000 
R_mid_hand01 0.000000 0.000000 0.000000 0.000000 0.000000 0.000000 10.000000 
R_mid_hand02 0.000000 0.000000 0.000000 0.000000 0.000000 0.000000 10.000000 
R_mid_hand03 0.000000 0.000000 0.000000 0.000000 0.000000 0.000000 10.000000 
spine02 0.000000 0.000000 0.000000 0.000000 0.000000 0.000000 10.000000 
spine03 0.000000 0.000000 0.000000 0.000000 0.000000 0.000000 10.000000 
pelvis 0.000000 0.000000 0.000000 0.000000 0.000000 0.000000 10.000000 
null_rope03_connect 0.000000 0.000000 0.000000 0.000000 0.000000 0.000000 10.000000 
null_rope04_connect 0.000000 0.000000 0.000000 0.000000 0.000000 0.000000 10.000000 
Rope3_Seg01 0.000000 0.000000 0.000000 0.000000 0.000000 0.000000 10.000000 
Rope3_Seg02 0.000000 0.000000 0.000000 0.000000 0.000000 0.000000 10.000000 
Rope3_Seg03 0.000000 0.000000 0.000000 0.000000 0.000000 0.000000 10.000000 
Rope3_Seg04 0.000000 0.000000 0.000000 0.000000 0.000000 0.000000 10.000000 
Rope3_Seg05 0.000000 0.000000 0.000000 0.000000 0.000000 0.000000 10.000000 
Rope3_Seg06 0.000000 0.000000 0.000000 0.000000 0.000000 0.000000 10.000000 
Rope3_Seg07 0.000000 0.000000 0.000000 0.000000 0.000000 0.000000 10.000000 
Rope3_Seg08 0.000000 0.000000 0.000000 0.000000 0.000000 0.000000 10.000000 
Rope3_Seg09 0.000000 0.000000 0.000000 0.000000 0.000000 0.000000 10.000000 
R_rear_hand01 0.000000 0.000000 0.000000 0.000000 0.000000 0.000000 10.000000 
R_rear_hand02 0.000000 0.000000 0.000000 0.000000 0.000000 0.000000 10.000000 
R_rear_hand03 0.000000 0.000000 0.000000 0.000000 0.000000 0.000000 10.000000 
Rope4_Seg01 0.000000 0.000000 0.000000 0.000000 0.000000 0.000000 10.000000 
Rope4_Seg02 0.000000 0.000000 0.000000 0.000000 0.000000 0.000000 10.000000 
Rope4_Seg03 0.000000 0.000000 0.000000 0.000000 0.000000 0.000000 10.000000 
Rope4_Seg04 0.000000 0.000000 0.000000 0.000000 0.000000 0.000000 10.000000 
Rope4_Seg05 0.000000 0.000000 0.000000 0.000000 0.000000 0.000000 10.000000 
Rope4_Seg06 0.000000 0.000000 0.000000 0.000000 0.000000 0.000000 10.000000 
Rope4_Seg07 0.000000 0.000000 0.000000 0.000000 0.000000 0.000000 10.000000 
Rope4_Seg08 0.000000 0.000000 0.000000 0.000000 0.000000 0.000000 10.000000 
Rope4_Seg09 0.000000 0.000000 0.000000 0.000000 0.000000 0.000000 10.000000 
L_rear_hand01 0.000000 0.000000 0.000000 0.000000 0.000000 0.000000 10.000000 
L_rear_hand02 0.000000 0.000000 0.000000 0.000000 0.000000 0.000000 10.000000 
L_rear_hand03 0.000000 0.000000 0.000000 0.000000 0.000000 0.000000 10.000000 
#Beginning of Data. Separated by tabs
#Fr	Tx	Ty	Tz	Rx	Ry	Rz	SF
[MASTER]
1 0.000010 -0.000000 0.000000 0.002347 0.000000 89.997704 0.000010
2 53.884964 -0.000008 0.000000 0.002347 0.000000 89.997704 53.884964
[root]
1 -62.822105 16.502304 1500.000000 -89.198860 -27.677330 179.849472 1501.405640
2 -62.822109 16.502304 1396.246582 -106.549881 -27.862972 -179.765427 1397.756592
[chest]
1 -84.512650 -34.090519 0.000000 -5.203234 1.503577 -178.039886 91.129311
2 -84.512650 -34.090519 0.000000 -11.916084 2.816839 -179.106888 91.129311
[L_mid_tent01]
1 27.299576 22.177504 -249.917953 3.862628 36.229202 81.347610 252.380844
2 27.338924 22.154940 -250.170914 -7.994416 32.522442 63.534454 252.633621
[R_mid_tent01]
1 23.228794 24.509907 226.238495 160.432037 -47.061241 87.899765 228.744751
2 23.228794 24.509907 226.238495 170.804779 -49.869125 73.700493 228.744751
[spine01]
1 -0.361383 -0.195265 0.000000 0.840989 0.446373 15.483044 0.410763
2 -0.361383 -0.195265 0.000000 0.338572 0.550036 11.143856 0.410763
[Bip01_Neck]
1 165.484543 71.581718 0.000119 175.896118 1.177290 24.871183 180.302734
2 165.484543 71.581718 0.000119 175.896118 1.177290 24.871181 180.302734
[L_humerus]
1 -13.983130 -135.272980 -120.471481 170.940796 81.564224 -99.189163 181.680161
2 -13.983130 -135.272980 -120.471481 170.940826 81.564293 -99.189247 181.680161
[R_humerus]
1 -13.983309 -135.273102 125.287651 -159.666046 -68.957870 -101.166077 184.909012
2 -13.983309 -135.273102 125.287651 -159.666046 -68.957893 -101.166092 184.909012
[weapon_bone]
1 235.964890 -300.705902 0.000000 0.000000 -89.951546 -128.212341 382.234833
2 235.964890 -300.705902 0.000000 0.000000 -89.951546 -128.212341 382.234833
[Bip01_Head]
1 261.355835 108.959351 -2.864189 2.248029 5.843377 -62.458344 283.173492
2 261.355835 108.959358 -2.864184 2.248028 5.843376 -62.458344 283.173492
[eye_left_bone]
1 -24.626970 125.451866 -64.772606 0.000000 -90.000000 -99.840431 143.318359
2 -24.626970 125.451866 -64.772606 0.000000 -90.000000 -99.840431 143.318359
[eye_right_bone]
1 -24.626970 125.451866 64.327362 0.000000 -89.960434 80.159386 143.117676
2 -24.626970 125.451866 64.327362 0.000000 -89.972023 80.159386 143.117676
[L_forearm]
1 322.776093 0.000000 -0.000119 0.000471 0.002300 -66.859398 322.776093
2 322.776093 0.000000 -0.000119 0.000471 0.002300 -66.859406 322.776093
[L_front_hand]
1 241.149185 -0.042021 -3.300071 -178.667953 -1.835447 -27.422350 241.171753
2 241.149185 -0.042021 -3.300071 -178.667953 -1.835447 -27.422350 241.171753
[L_weapon_bone]
1 156.183838 0.000000 0.000000 0.001660 0.001660 0.001660 156.183838
2 156.183838 0.000000 0.000000 0.001802 0.001504 10.327388 156.183838
[L_front_hand01_01]
1 86.095154 20.947098 -0.655860 -0.366594 -0.477154 75.385574 88.609184
2 86.095154 20.947098 -0.655860 0.405585 -0.442306 -4.620490 88.609184
[L_front_hand02_01]
1 86.935165 -11.437475 24.513514 154.403519 -59.888931 -61.371990 91.046425
2 86.935165 -11.437475 24.513514 116.959450 3.630817 1.495453 91.046425
[L_front_hand03_01]
1 86.637497 -14.123976 -20.424902 -153.913849 58.118122 -62.702866 90.126129
2 86.637497 -14.123976 -20.424902 -118.420097 -4.656303 -0.152527 90.126129
[L_front_hand01_02]
1 71.020905 -0.000179 0.000030 0.000334 -0.002323 -106.379684 71.020905
2 71.020905 -0.000179 0.000030 0.001534 0.001777 -8.378850 71.020905
[L_front_hand02_02]
1 71.020927 -0.000119 0.000060 0.000334 -0.002323 -106.379684 71.020927
2 71.020927 -0.000119 0.000060 0.001534 0.001777 -8.378850 71.020927
[L_front_hand03_02]
1 71.020905 -0.000060 0.000060 0.000334 -0.002323 -106.379684 71.020905
2 71.020905 -0.000060 0.000060 0.001534 0.001777 -8.378850 71.020905
[R_forearm]
1 322.776428 -0.000060 0.000030 0.199694 -0.075621 -69.903069 322.776428
2 322.776428 -0.000060 0.000030 0.199694 -0.075621 -69.903076 322.776428
[R_front_hand]
1 238.847015 -0.006795 2.210259 -1.531694 0.790216 -51.443054 238.857239
2 238.847015 -0.006795 2.210259 -1.531694 0.790216 -51.443054 238.857239
[R_weapon_bone]
1 155.664093 0.002503 -0.000030 0.003487 0.001180 -90.988930 155.664078
2 155.664093 0.002503 -0.000030 0.003238 0.001750 -110.392578 155.664078
[R_front_hand01_01]
1 87.624611 14.231146 22.918642 -154.633499 -59.950619 61.746044 91.683487
2 87.624611 14.231146 22.918642 -116.960213 3.496675 -1.324139 91.683487
[R_front_hand02_01]
1 89.356956 14.367283 -19.491137 154.602661 58.302849 63.744389 92.579636
2 89.356956 14.367283 -19.491137 118.419647 -4.257089 0.609827 92.579636
[R_front_hand03_01]
1 87.286232 -22.307278 -0.143439 0.162155 -0.423168 -75.767921 90.091743
2 87.286232 -22.307278 -0.143439 -0.387970 -0.231462 4.232001 90.091743
[R_front_hand01_02]
1 71.020905 0.000060 0.000119 0.002323 -0.000334 106.381714 71.020905
2 71.020905 0.000060 0.000119 0.001777 0.001534 8.377220 71.020905
[R_front_hand02_02]
1 71.020844 -0.000030 -0.000119 0.002323 -0.000334 106.381714 71.020836
2 71.020844 -0.000030 -0.000119 0.001777 0.001534 8.377220 71.020836
[R_front_hand03_02]
1 71.020905 0.000000 0.000030 0.002323 -0.000334 106.381714 71.020905
2 71.020905 0.000000 0.000030 0.001777 0.001534 8.377220 71.020905
[null_rope01_connect]
1 328.732483 0.000000 -0.000238 -136.714310 -54.263935 174.201324 328.732483
2 328.732483 0.000000 -0.000238 -143.787552 -40.453926 -163.057053 328.732483
[Rope1_Seg01]
1 0.000000 0.000000 0.000000 -38.520710 48.617119 130.653366 0.000000
2 0.000000 0.000000 0.000000 -38.147446 46.318272 129.244720 0.000000
[Rope1_Seg02]
1 139.999863 -0.000179 0.000000 1.672225 3.574544 -7.969467 139.999863
2 139.999863 -0.000179 0.000000 1.802556 1.518396 -5.739822 139.999863
[Rope1_Seg03]
1 139.999924 0.000060 -0.000060 3.413060 5.692322 -11.759525 139.999924
2 139.999924 0.000060 -0.000060 3.766103 3.196792 -9.975077 139.999924
[Rope1_Seg04]
1 139.999924 -0.000060 -0.000119 16.724756 7.851717 -19.537119 139.999924
2 139.999924 -0.000060 -0.000119 32.662548 4.983760 -28.735205 139.999924
[Rope1_Seg05]
1 139.999832 0.000119 -0.000060 51.736046 -8.546386 -16.438183 139.999832
2 139.999832 0.000119 -0.000060 42.668922 -20.539238 -14.529365 139.999832
[Rope1_Seg06]
1 139.999954 0.000119 -0.000060 12.468221 -7.069260 -1.035701 139.999954
2 139.999954 0.000119 -0.000060 5.213583 -6.039094 0.281718 139.999954
[Rope1_Seg07]
1 139.999985 0.000060 0.000000 5.437134 -3.819250 -0.150029 139.999985
2 139.999985 0.000060 0.000000 2.264112 -3.047274 0.322457 139.999985
[Rope1_Seg09]
1 121.602913 0.000119 -0.000089 -89.793175 -1.359789 0.847147 121.602913
2 121.602913 0.000119 -0.000089 -89.793175 -1.359789 0.847147 121.602913
[L_mid_hand01]
1 103.859421 1.038730 8.195221 111.431305 -47.263851 -16.612017 104.187431
2 103.859421 1.038730 8.195221 111.431297 -47.263840 -16.612019 104.187431
[L_mid_hand02]
1 105.572853 -4.139662 -10.864139 -150.709808 35.166882 -45.161087 106.211075
2 105.572853 -4.139662 -10.864139 -150.709808 35.166874 -45.161087 106.211075
[L_mid_hand03]
1 104.641464 17.579376 -3.913581 -12.649596 13.974999 50.985855 106.179977
2 104.641464 17.579376 -3.913581 -12.649595 13.974999 50.985855 106.179977
[null_rope02_connect]
1 328.732849 0.000179 -0.000119 -124.702988 39.346882 16.712608 328.732849
2 328.732849 0.000179 -0.000119 -114.167000 53.248055 20.927797 328.732849
[Rope2_Seg01]
1 -0.000076 0.000134 0.000153 101.975555 45.575375 49.168365 0.000217
2 -0.000075 0.000134 0.000153 91.361633 63.046116 31.122820 0.000216
[Rope2_Seg02]
1 139.999741 -0.000060 -0.000119 -0.905378 6.062591 0.548051 139.999756
2 139.999741 -0.000060 -0.000119 -1.698809 13.764611 0.274897 139.999756
[Rope2_Seg03]
1 140.000107 0.000030 0.000000 -1.303291 6.967433 0.214670 140.000107
2 140.000107 0.000030 0.000000 -4.292797 17.729303 -0.858488 140.000107
[Rope2_Seg04]
1 139.999802 0.000000 -0.000060 -5.222423 15.225730 1.925663 139.999802
2 139.999802 0.000000 -0.000060 -23.291746 27.943825 7.129569 139.999802
[Rope2_Seg05]
1 139.999985 -0.000060 0.000119 -18.810976 21.718323 9.764306 139.999985
2 139.999985 -0.000060 0.000119 -23.133013 9.948363 10.933299 139.999985
[Rope2_Seg06]
1 139.999893 -0.000030 -0.000119 -9.042812 5.306821 5.021990 139.999893
2 139.999893 -0.000030 -0.000119 -8.957111 2.084647 5.034993 139.999893
[Rope2_Seg07]
1 139.999893 0.000060 -0.000060 -5.058789 2.279216 2.901910 139.999893
2 139.999893 0.000060 -0.000060 -4.869201 0.717926 2.986187 139.999893
[Rope2_Seg09]
1 121.338966 0.000089 -0.000060 33.793236 -1.359788 -0.847141 121.338966
2 121.338966 0.000089 -0.000060 33.793236 -1.359788 -0.847141 121.338966
[R_mid_hand01]
1 104.680779 11.144459 -10.335981 -34.269650 35.095989 42.885235 105.778534
2 104.680779 11.144459 -10.335981 -34.269653 35.095997 42.885235 105.778534
[R_mid_hand02]
1 104.070427 2.443552 8.231699 68.449066 -47.537163 16.779839 104.424065
2 104.070427 2.443552 8.231699 68.449051 -47.537151 16.779839 104.424065
[R_mid_hand03]
1 106.028137 -11.221827 -5.996406 -171.106766 13.128626 -52.726494 106.788818
2 106.028137 -11.221827 -5.996406 -171.106766 13.128626 -52.726494 106.788818
[spine02]
1 129.756927 0.001550 0.000119 -0.245322 -4.052060 -4.355547 129.756927
2 129.756927 0.001550 0.000119 -0.245322 -4.052060 -4.355547 129.756927
[spine03]
1 78.613739 0.087128 -4.898798 0.369659 4.260734 -4.885720 78.766266
2 78.613739 0.087134 -4.898818 0.369659 4.260735 -4.885721 78.766266
[pelvis]
1 169.435242 0.051022 0.000000 -0.010007 -0.191417 -1.897554 169.435257
2 169.435242 0.051022 0.000000 -0.010019 -0.193063 -1.874472 169.435257
[null_rope03_connect]
1 -1.257226 -2.466202 137.391083 3.419360 -87.944046 109.922150 137.418976
2 -1.257226 -2.466202 137.391083 -150.549408 -74.233887 -91.491898 137.418976
[null_rope04_connect]
1 -1.259640 -2.480268 -137.844437 3.419360 -87.944046 109.922150 137.872513
2 -1.259640 -2.480268 -137.844437 -150.549408 -74.233887 -91.491898 137.872513
[Rope3_Seg01]
1 0.000000 0.000000 0.000000 11.513281 -34.139671 -62.854660 0.000000
2 0.000000 0.000000 0.000000 3.776495 -37.796352 -51.090641 0.000000
[Rope3_Seg02]
1 139.999924 -0.000119 0.000060 -18.552042 -29.227589 40.999119 139.999924
2 139.999924 -0.000119 0.000060 -22.787592 -14.960225 44.296883 139.999924
[Rope3_Seg03]
1 139.999924 -0.000119 0.000119 -26.994455 -37.903904 38.561871 139.999924
2 139.999924 -0.000119 0.000119 -31.577372 -24.675522 29.224663 139.999924
[Rope3_Seg04]
1 139.999924 0.000119 0.000000 -14.595142 -22.748518 25.572235 139.999924
2 139.999924 0.000119 0.000000 -15.793781 -16.396822 13.678354 139.999924
[Rope3_Seg05]
1 139.999924 -0.000238 0.000060 -8.816338 -16.034359 13.899295 139.999924
2 139.999924 -0.000238 0.000060 -18.595598 -21.863892 15.250161 139.999924
[Rope3_Seg06]
1 139.999893 -0.000119 -0.000060 -2.078054 -6.035475 3.450266 139.999893
2 139.999893 -0.000119 -0.000060 -6.016480 -12.511464 3.566667 139.999893
[Rope3_Seg07]
1 139.999771 0.000060 -0.000119 -0.854238 -3.585897 1.889027 139.999771
2 139.999771 0.000060 -0.000119 -2.065642 -6.661345 1.043502 139.999771
[Rope3_Seg08]
1 139.999985 -0.000060 0.000000 -0.205036 -2.054073 1.044110 139.999985
2 139.999985 -0.000060 0.000000 -0.690669 -3.710615 0.444647 139.999985
[Rope3_Seg09]
1 90.185997 -0.000179 -0.000060 89.793228 -1.359877 -0.847183 90.185997
2 90.185997 -0.000179 -0.000060 89.793228 -1.359877 -0.847183 90.185997
[R_rear_hand01]
1 103.366196 -6.073594 -10.757982 -166.970291 21.129854 -46.704182 104.101845
2 103.366196 -6.073594 -10.757982 -166.970291 21.129854 -46.704182 104.101845
[R_rear_hand02]
1 100.509819 12.039542 -7.992327 -28.148870 27.804201 44.102722 101.543350
2 100.509819 12.039542 -7.992327 -28.148870 27.804201 44.102722 101.543350
[R_rear_hand03]
1 101.539970 5.215704 5.435467 81.628380 -47.127724 10.016966 101.819031
2 101.539970 5.215704 5.435467 81.628380 -47.127724 10.016966 101.819031
[Rope4_Seg01]
1 0.000000 0.000000 0.000000 -101.189980 -12.158773 -103.049271 0.000000
2 0.000000 0.000000 0.000000 -95.672134 -29.091360 -117.406349 0.000000
[Rope4_Seg02]
1 139.999985 0.000060 0.000119 -14.382801 49.422653 -58.152493 139.999985
2 139.999985 0.000060 0.000119 -10.515762 28.218985 -62.440113 139.999985
[Rope4_Seg03]
1 139.999924 0.000000 -0.000238 11.874335 22.803762 -34.019394 139.999924
2 139.999924 0.000000 -0.000238 -0.739173 10.874637 -29.407021 139.999924
[Rope4_Seg04]
1 139.999985 0.000000 0.000119 8.738008 12.374288 -20.847620 139.999985
2 139.999985 0.000000 0.000119 -0.182727 7.121365 -12.606543 139.999985
[Rope4_Seg05]
1 139.999802 -0.000060 -0.000119 9.468182 12.510750 -31.373268 139.999802
2 139.999802 -0.000060 -0.000119 -0.609050 12.519034 -19.553087 139.999802
[Rope4_Seg06]
1 139.999924 0.000000 0.000060 3.278249 1.983855 -12.839695 139.999924
2 139.999924 0.000000 0.000060 0.590125 8.847753 -14.681314 139.999924
[Rope4_Seg07]
1 139.999802 0.000000 0.000000 1.386378 0.565752 -6.489215 139.999802
2 139.999802 0.000000 0.000000 0.793813 4.260169 -7.764901 139.999802
[Rope4_Seg08]
1 139.999924 0.000000 0.000119 -0.880953 0.222062 -3.512141 139.999924
2 139.999924 0.000000 0.000119 -0.993536 2.319572 -4.407415 139.999924
[Rope4_Seg09]
1 90.185791 0.000060 0.000060 -135.617828 2.228885 0.850567 90.185791
2 90.185791 0.000060 0.000060 -135.617828 2.228885 0.850567 90.185791
[L_rear_hand01]
1 101.696655 -8.392275 -7.654577 -27.705481 -28.251705 134.947800 102.329041
2 101.696655 -8.392275 -7.654577 -27.705481 -28.251705 134.947800 102.329041
[L_rear_hand02]
1 102.726799 -1.568258 5.773216 81.477219 48.065086 169.775513 102.900848
2 102.726799 -1.568258 5.773216 81.477219 48.065086 169.775513 102.900848
[L_rear_hand03]
1 104.552910 9.721220 -10.420293 -167.330078 -21.338425 -132.303940 105.519653
2 104.552910 9.721220 -10.420293 -167.330078 -21.338425 -132.303940 105.519653
